<svg xmlns="http://www.w3.org/2000/svg" viewBox="0 0 960 680" role="img" aria-labelledby="title desc">
  <title id="title">工作区记忆的蒸馏、人工裁决与审计</title>
  <desc id="desc">原始事实经过蒸馏策略；唯一胜出者进入策展历史，同分候选进入持久化冲突队列，经人工裁决后更新策展状态并追加审计事件。只有 active 修订进入 prompt。</desc>
  <defs>
    <marker id="arrow" viewBox="0 0 10 10" refX="8" refY="5" markerWidth="7" markerHeight="7" orient="auto">
      <path d="M1 1L9 5L1 9" fill="none" stroke="context-stroke" stroke-width="1.6" stroke-linecap="round" stroke-linejoin="round"/>
    </marker>
    <style>
      .title{font:600 22px system-ui,sans-serif;fill:#172033}
      .heading{font:600 15px system-ui,sans-serif;fill:#172033}
      .body{font:400 13px system-ui,sans-serif;fill:#3b465d}
      .small{font:400 12px system-ui,sans-serif;fill:#5d687d}
      .mono{font:500 12px ui-monospace,monospace;fill:#3b465d}
      .line{fill:none;stroke:#64748b;stroke-width:1.8;marker-end:url(#arrow)}
      .dash{fill:none;stroke:#64748b;stroke-width:1.5;stroke-dasharray:5 5;marker-end:url(#arrow)}
    </style>
  </defs>
  <rect width="960" height="680" fill="#f8fafc"/>
  <text class="title" x="480" y="38" text-anchor="middle">Workspace Memory：可恢复的冲突裁决</text>

  <rect x="35" y="75" width="215" height="150" rx="12" fill="#e7f5ec" stroke="#3f9b69"/>
  <text class="heading" x="55" y="105">daily/*.jsonl</text>
  <text class="body" x="55" y="130">原始事实只追加</text>
  <text class="body" x="55" y="153">保留时间与 evidence id</text>
  <text class="body" x="55" y="176">可选稳定 memory_key</text>
  <text class="mono" x="55" y="202">runtime.python-version</text>

  <rect x="295" y="75" width="215" height="150" rx="12" fill="#eaf2ff" stroke="#4f7fc7"/>
  <text class="heading" x="315" y="105">DistillPolicy</text>
  <text class="body" x="315" y="130">年龄、类型与重要度门槛</text>
  <text class="body" x="315" y="153">替代需要至少 2 条新证据</text>
  <text class="body" x="315" y="176">拒绝过期候选</text>
  <text class="body" x="315" y="199">同分冲突 fail closed</text>

  <rect x="555" y="75" width="370" height="150" rx="12" fill="#fff4df" stroke="#c98720"/>
  <text class="heading" x="575" y="105">curated.json：canonical history</text>
  <rect x="575" y="125" width="140" height="72" rx="8" fill="#f3e5ce" stroke="#ac7d39"/>
  <text class="small" x="645" y="146" text-anchor="middle">revision 1</text>
  <text class="body" x="645" y="168" text-anchor="middle">superseded</text>
  <text class="small" x="645" y="187" text-anchor="middle">Python 3.11</text>
  <path class="line" d="M715 161H777"/>
  <text class="small" x="746" y="148" text-anchor="middle">supersedes</text>
  <rect x="780" y="125" width="125" height="72" rx="8" fill="#ffe0a8" stroke="#c98720" stroke-width="2"/>
  <text class="small" x="842" y="146" text-anchor="middle">revision 2</text>
  <text class="heading" x="842" y="168" text-anchor="middle">active</text>
  <text class="small" x="842" y="187" text-anchor="middle">Python 3.12</text>

  <path class="line" d="M250 150H287"/>
  <path class="line" d="M510 150H547"/>

  <rect x="575" y="300" width="160" height="100" rx="12" fill="#fef3c7" stroke="#d09a13"/>
  <text class="heading" x="655" y="332" text-anchor="middle">MEMORY.md</text>
  <text class="body" x="655" y="358" text-anchor="middle">仅渲染 active 修订</text>
  <text class="small" x="655" y="381" text-anchor="middle">可从 canonical state 重建</text>

  <rect x="785" y="300" width="140" height="100" rx="12" fill="#eee9ff" stroke="#7764c5"/>
  <text class="heading" x="855" y="332" text-anchor="middle">Agent prompt</text>
  <text class="body" x="855" y="358" text-anchor="middle">有界注入</text>
  <text class="small" x="855" y="381" text-anchor="middle">不暴露未决候选</text>

  <path class="line" d="M842 225V265H655V292"/>
  <path class="line" d="M735 350H777"/>

  <rect x="35" y="285" width="260" height="130" rx="12" fill="#fff" stroke="#a9b2c1" stroke-dasharray="5 4"/>
  <text class="heading" x="55" y="315">conflicts.json</text>
  <text class="body" x="55" y="341">同分候选的完整证据快照</text>
  <text class="small" x="55" y="365">revision + fingerprint</text>
  <text class="small" x="55" y="387">open / resolved / superseded</text>
  <path class="dash" d="M402 225V250H165V277"/>

  <rect x="335" y="285" width="190" height="130" rx="12" fill="#e9f7f6" stroke="#3c948e"/>
  <text class="heading" x="430" y="315" text-anchor="middle">Human reviewer</text>
  <text class="body" x="430" y="341" text-anchor="middle">expected revision</text>
  <text class="body" x="430" y="365" text-anchor="middle">selected candidate</text>
  <text class="small" x="430" y="389" text-anchor="middle">actor · rationale · event ID</text>
  <path class="line" d="M295 350H327"/>
  <path class="line" d="M430 285V250H740V233"/>
  <text class="small" x="585" y="272" text-anchor="middle">keep incumbent / promote challenger</text>

  <rect x="335" y="465" width="390" height="95" rx="12" fill="#eef2ff" stroke="#6878bd"/>
  <text class="heading" x="355" y="495">conflict-adjudications.jsonl</text>
  <text class="body" x="355" y="521">append-only：选择、证据、actor 与 rationale</text>
  <text class="small" x="355" y="544">相同 event ID 重试幂等；不同载荷 fail closed</text>
  <path class="line" d="M430 415V457"/>

  <rect x="35" y="465" width="260" height="95" rx="12" fill="#fff7ed" stroke="#d28a35"/>
  <text class="heading" x="55" y="495">陈旧裁决拒绝</text>
  <text class="body" x="55" y="521">新增证据或 active 版本变化</text>
  <text class="small" x="55" y="544">要求 reviewer 重新加载快照</text>
  <path class="dash" d="M335 390H315V457"/>

  <rect x="35" y="595" width="890" height="55" rx="12" fill="#edf2f7" stroke="#a9b2c1"/>
  <text class="heading" x="55" y="620">不变量</text>
  <text class="small" x="55" y="641">一个 memory_key 只有一个 active 修订 · 未决候选不进 prompt · 原始 evidence 与裁决事件只追加 · 损坏状态显式报错</text>
</svg>
